<svg preserveAspectRatio="xMidYMid meet" viewBox="2.508102882882883 2.5056 226.77477477477478 257.346" xmlns="http://www.w3.org/2000/svg" version="1.0" style="max-height: 500px" width="226.77477477477478" height="257.346">
 <g fill="#000000">
  <path d="M0 130.5 l0 -130.5 116 0 116 0 0 130.5 0 130.5 -116 0 -116 0 0 -130.5z m231 0 l0 -129.5 -115 0 -115 0 0 129.5 0 129.5 115 0 115 0 0 -129.5z"/>
 </g>
 <g fill="#ffffff">
  <path d="M109.3 253.1 c-29.9 -14.6 -62.1 -40.2 -79.2 -63.1 -7.6 -10.1 -15.3 -25.6 -18.1 -36.5 -3 -11.9 -4 -26.2 -4 -60.2 l0 -31.1 3.3 -1.9 c4.5 -2.7 22.6 -9.8 38.2 -14.9 l13 -4.3 1.9 3.7 c1 2 2.5 4.5 3.4 5.4 1.2 1.5 1.2 1.8 0.1 2.2 -12.2 3.8 -40.2 13.2 -43.5 14.7 l-4.4 1.8 0 24 c0 15.2 -0.4 24.2 -1 24.6 -1.9 1.2 -7 10.9 -7 13.3 0 3.8 3.1 9.2 6.5 11.5 2.8 1.8 3.5 3.1 5 9.6 3.7 16.2 12.8 30.6 30.5 48.1 17.1 16.8 37 31.5 56.5 41.6 l9.4 4.9 5.5 -2.8 c3 -1.6 9.1 -5.1 13.6 -7.9 7.8 -4.8 8.1 -5.1 6.1 -6.5 -4 -2.7 -2.3 -6.2 4.7 -9.7 4.1 -2.1 7.8 -1.8 7.6 0.7 -0.1 0.9 0 1.7 0.2 1.7 0.2 0 3.9 -2.8 8.2 -6.2 10.4 -8.3 27.5 -25.8 33.7 -34.5 3.8 -5.3 6 -7.4 9.2 -8.7 2.3 -1 5.9 -3.6 7.9 -5.8 2.9 -3.3 3.5 -3.6 2.9 -1.7 -1.5 5.4 -6.7 15.4 -11.7 22.7 -11 16.2 -41 43.1 -63.4 57 -6.9 4.3 -23.6 13.2 -24.7 13.2 -0.2 0 -4.9 -2.2 -10.4 -4.9z"/>
  <path d="M113.4 238.6 c-5.9 -2.7 -6.5 -3.4 -5.7 -6.4 0.5 -2.1 4.3 -3.2 4.3 -1.4 0 1.1 6.6 4.2 9 4.2 2.4 0 9 -3.1 9 -4.2 0 -1.4 3.1 -0.9 4.8 0.8 1.5 1.5 1.4 1.8 -0.4 3.1 -3.6 2.7 -11.3 6.3 -13.6 6.3 -1.3 0 -4.6 -1.1 -7.4 -2.4z"/>
  <path d="M96.5 229.1 c-13.1 -7.5 -14.3 -15.6 -1.8 -12.1 7.8 2.2 11.8 7.8 9.7 13.4 -0.9 2.2 -2.2 2 -7.9 -1.3z"/>
  <path d="M115.2 226.5 c-1.8 -0.8 -5.9 -4.1 -9 -7.4 -6.1 -6.4 -11.7 -8.8 -17.3 -7.6 l-2.9 0.7 0 -16.7 0 -16.7 5.3 0.7 c9.7 1.2 19.3 5.2 23.7 10 2.4 2.6 2.5 3.2 3 20.6 0.3 9.8 0.5 17.9 0.5 17.9 0 -0.1 -1.5 -0.7 -3.3 -1.5z"/>
  <path d="M124.2 209.8 l0.3 -18.2 4.2 -3.2 c2.3 -1.8 6.8 -4.2 10 -5.4 5.7 -2.1 17 -4.6 17.8 -3.9 0.2 0.2 0.5 7.5 0.6 16.2 l0.3 15.8 -5.6 2.3 c-3 1.2 -6.8 3.2 -8.4 4.3 -1.6 1.1 -6.6 3.9 -11.2 6.2 l-8.2 4.1 0.2 -18.2z m16.7 2.1 c8.3 -3.1 10 -4.4 8.4 -6 -0.8 -0.8 -15.8 4.3 -17.7 6.1 -0.7 0.7 -0.1 3 0.9 3 0.2 0 4 -1.4 8.4 -3.1z m0.8 -11.4 c6.9 -2.1 8.3 -2.9 8.3 -4.6 0 -1.8 -0.4 -2 -3.2 -1.4 -7.4 1.6 -15.3 5 -15.6 6.8 -0.5 2.3 0.7 2.2 10.5 -0.8z"/>
  <path d="M72.8 210 c-3.8 -2.9 -6.8 -5.7 -6.8 -6.2 0 -2.9 4.7 -22.9 7.7 -32.8 4 -13.4 11.7 -32.8 17.9 -45.2 4.9 -9.7 5.2 -11.4 2.6 -12.2 -3.2 -1 -7.1 -5.9 -8 -10.1 -1.7 -8.2 1.7 -15.1 8.7 -17.4 8.6 -2.7 15.3 2.8 16.6 13.7 l0.6 5.8 3.5 -0.4 c5.1 -0.6 16.1 1.6 22.2 4.5 10.9 5.1 22.9 17.6 31.2 32.5 3.1 5.6 3.3 9.2 0.5 6.8 -0.8 -0.6 -2.4 -1 -3.7 -0.8 -3 0.4 -3.1 4 0 5.3 3.3 1.5 2.7 2.9 -2.7 5.8 -9.6 5.3 -18.9 4.6 -26.8 -1.9 -3.1 -2.5 -3.3 -2.5 -3.3 -0.6 0 3.2 4.6 7.9 9.5 9.8 3.8 1.4 4.5 2.1 4.5 4.4 0 2.4 -0.5 2.8 -3.7 3.4 -5 0.8 -13.6 4.9 -18.4 8.6 l-3.8 3.1 -5.3 -4.1 c-8 -6.1 -14.5 -8.2 -25.8 -8.4 l-9.5 -0.1 -0.5 20.8 -0.5 20.9 -6.7 -5.2z m62.2 -77.4 c0 -0.8 -1.1 -2.7 -2.4 -4.3 -2 -2.3 -3.2 -2.8 -7.9 -2.9 -4.9 -0.2 -5.6 0 -6.6 2.2 -0.6 1.4 -0.9 2.9 -0.6 3.4 0.7 1.2 4.5 2 4.5 0.9 0 -1.3 3.9 -1 8 0.5 4.7 1.8 5 1.8 5 0.2z"/>
  <path d="M164 192.5 l0 -19.5 -5.5 0 c-3 0 -5.5 -0.4 -5.5 -0.9 0 -0.5 -0.3 -1.6 -0.6 -2.5 -0.4 -1.1 0 -1.6 1.5 -1.6 6.7 0 17.4 -6.7 20.7 -13.2 1.5 -2.8 1.7 -11.6 0.3 -12.8 -0.3 -0.3 -2.6 -3.6 -5.1 -7.5 -2.5 -3.8 -6.4 -9.2 -8.7 -12 -2.2 -2.7 -3.7 -5.1 -3.2 -5.3 1.4 -0.5 12.9 2.7 19.4 5.3 12.4 5.1 27.8 18 36.6 30.8 l3.2 4.7 -2.6 0 c-3.6 0 -4.4 2.8 -1.5 5 l2.3 1.8 -3.4 1.8 c-5.1 2.7 -14.4 2.5 -19.2 -0.5 -2.1 -1.3 -4.1 -2 -4.5 -1.7 -1 1.1 1.1 3.9 4.6 6.1 1.7 1.1 3.1 2.3 3.2 2.6 0 1 -6.7 1.9 -13.7 1.9 -3.5 0 -6.3 0.2 -6.3 0.4 0 0.2 1.5 3.7 3.4 7.7 5.5 11.9 5.8 10.7 -3.9 19.5 -4.7 4.3 -9.2 8.2 -10 8.7 -1.3 0.7 -1.5 -1.6 -1.5 -18.8z m27 -46.9 c0 -1.8 -4.1 -5.3 -7 -6.1 -1.9 -0.4 -3.1 -0.1 -4.4 1.3 -2.1 2.4 -0.9 3.6 3.9 3.8 1.6 0.1 3.1 0.6 3.2 1.1 0.5 1.4 4.3 1.3 4.3 -0.1z"/>
  <path d="M52.2 191.6 c-8 -8.4 -9.3 -12 -7.2 -18.9 1.9 -6.3 6.3 -14.7 10.9 -20.5 l4.1 -5.1 -6.4 0.6 c-3.5 0.3 -8.5 0.2 -11.2 -0.2 l-4.9 -0.7 4 -1.8 c3.9 -1.7 8.3 -5.6 7.4 -6.5 -0.3 -0.2 -2.9 0.4 -5.7 1.5 -8.1 3.1 -17.2 2.3 -22.4 -1.9 l-2.3 -1.9 2.4 -1.9 c3.1 -2.5 2 -4.3 -2.5 -4.3 l-3.5 0 3.9 -5.7 c6.4 -9.3 18.4 -22.5 24.3 -26.5 6.7 -4.7 15.2 -7.7 23.4 -8.5 5.4 -0.5 6.4 -0.9 6.9 -2.7 0.3 -1.1 3.9 -8.3 8.1 -15.9 4.1 -7.5 7.5 -13.9 7.5 -14.2 0 -0.3 -1.1 -0.5 -2.5 -0.5 -6.5 0 -14.9 -6 -18.8 -13.5 -3 -5.7 -3 -16.5 0 -22.2 4.5 -8.3 13.8 -13.2 22.8 -12 11.4 1.6 19.4 9.8 22 22.6 l1.1 5.5 12 0.1 c9.5 0.1 13.2 0.6 18.4 2.4 13.3 4.6 28.3 15.6 46.4 33.9 l8.9 9 -4.1 1.2 c-4.5 1.2 -5.7 3.8 -2.2 4.7 2.6 0.7 2.5 1.5 -0.6 4.4 -3.7 3.5 -12.1 3.4 -15.8 0 -1.8 -1.7 -3 -2.1 -3.6 -1.5 -1.6 1.6 -0.2 4.1 3.2 5.7 l3.1 1.5 -2.9 1.5 c-2.6 1.3 -11.9 3.7 -14.4 3.7 -0.6 0 -1 -1.8 -1 -4 0 -4.8 -1.7 -8.4 -5.7 -12.2 -10.1 -9.5 -25.3 -4 -28.8 10.5 -0.7 2.7 -2 3.2 -6.1 2.1 -1.5 -0.4 -2.4 -2 -3.3 -5.6 -3 -11.7 -14.8 -17.9 -25.4 -13.5 -4.2 1.8 -10.1 8.5 -11.7 13.2 -2.7 8.1 1 18.7 7.5 21.7 l2.4 1.1 -4.3 8.6 c-9.2 18.3 -20.5 49.9 -23.7 66.1 -0.7 3.6 -1.6 6.9 -1.9 7.3 -0.4 0.4 -3.9 -2.6 -7.8 -6.7z m5.1 -77 c4.7 0 5.7 -0.3 5.7 -1.7 0 -2.3 -4.6 -5.9 -7.6 -5.9 -2.8 0 -7 3.6 -7.9 6.9 -0.7 2.2 -0.5 2.3 1.6 1.6 1.3 -0.5 5 -0.9 8.2 -0.9z m98.2 -49.5 c-1.2 -4.6 -6.8 -9.1 -11.5 -9.1 -2.5 0 -7 4.6 -7 7.1 0 1.7 0.3 1.7 3.5 0.3 4.4 -1.8 7.5 -1.1 11.2 2.6 3.2 3.3 4.7 2.9 3.8 -0.9z"/>
  <path d="M218.6 154.9 c-0.9 -1.9 -2.6 -4.7 -3.9 -6.3 -2.1 -2.6 -2.2 -3.4 -1.5 -10 0.5 -3.9 0.5 -21.3 0.1 -38.6 l-0.8 -31.5 -15.2 -5.5 c-14 -5.1 -16.1 -6.1 -25.4 -13.2 -9.2 -7 -9.9 -7.8 -7.2 -7.8 6.9 0 38.1 9.9 54.1 17.1 l6.4 2.9 -0.5 42.2 c-0.4 40.3 -1.1 50.4 -3.7 53.2 -0.4 0.4 -1.5 -0.7 -2.4 -2.5z"/>
  <path d="M187.6 123.5 c-1.6 -1.3 -4.7 -3.1 -6.8 -4.1 -4.7 -2.1 -5.1 -5.2 -1.1 -8.4 3.5 -2.7 7.9 -2.1 11.2 1.7 2 2.3 2.2 3.3 1.7 7.2 -0.3 2.5 -1 4.8 -1.4 5.2 -0.4 0.4 -2 -0.3 -3.6 -1.6z"/>
  <path d="M145.5 108.4 c-2.7 -1.9 -7.1 -4.2 -9.6 -5.1 -4.4 -1.6 -4.6 -1.8 -3.9 -4.8 1.1 -4.9 2.7 -7.1 6.4 -8.9 4.2 -2 5.7 -2 10.1 -0.2 4 1.7 7.5 6.8 7.5 11.1 0 3.3 -3.4 11.5 -4.7 11.4 -0.4 0 -3 -1.6 -5.8 -3.5z"/>
  <path d="M47.4 85.5 c-3.6 -8.7 0.6 -17.8 8.8 -19.1 7.1 -1.2 12.8 4.4 12.8 12.4 l0 3.9 -4.7 0.7 c-2.7 0.3 -7.2 1.7 -10.1 3.1 l-5.3 2.5 -1.5 -3.5z"/>
  <path d="M148.8 35.4 c-3.7 -1.9 -14.4 -4.4 -19.4 -4.4 l-4.1 0 0.8 -5 c1.5 -9.8 7.6 -16 15.7 -16 9.4 0 13.8 5.3 13 15.5 -0.3 3.4 -1.2 7.3 -1.9 8.7 -1.3 2.5 -1.6 2.6 -4.1 1.2z"/>
 </g>
</svg>